<svg width="36" height="36" viewBox="0 0 36 36" fill="none" xmlns="http://www.w3.org/2000/svg">
<g id="Group 1000004531">
<circle id="Ellipse 952" cx="18" cy="18" r="18" fill="#00AFEF" fill-opacity="0.2"/>
<g id="Group 1000004530">
<path id="Vector" d="M22.8976 8.05225L26.9486 12.2751V28.3337H11.8154V28.3862H27.0003V12.3283L22.8976 8.05225Z" fill="#909090"/>
<path id="Vector_2" d="M22.8463 8H11.7627V28.3339H26.9476V12.276L22.8463 8Z" fill="#F4F4F4"/>
<path id="Vector_3" d="M11.6525 9.09229H7V14.0629H21.6345V9.09229H11.6525Z" fill="#7A7B7C"/>
<path id="Vector_4" d="M21.7115 13.9782H7.09375V9.00391H21.7115V13.9782Z" fill="#DD2025"/>
<path id="Vector_5" d="M11.9409 9.84501H10.9893V13.3398H11.7377V12.161L11.903 12.1705C12.0636 12.1677 12.2227 12.139 12.3741 12.0853C12.5068 12.0397 12.6289 11.9676 12.733 11.8734C12.839 11.7838 12.9225 11.6706 12.9769 11.5429C13.0499 11.3307 13.076 11.1051 13.0534 10.8818C13.0488 10.7223 13.0209 10.5643 12.9704 10.4129C12.9244 10.3036 12.8562 10.2051 12.7701 10.1236C12.684 10.0422 12.5818 9.97951 12.4702 9.93966C12.3736 9.90471 12.2739 9.87935 12.1724 9.86394C12.0955 9.85208 12.0179 9.84575 11.9401 9.84501M11.8025 11.5152H11.7377V10.4377H11.8782C11.9403 10.4332 12.0025 10.4427 12.0603 10.4655C12.1182 10.4883 12.1702 10.5239 12.2124 10.5695C12.3 10.6867 12.3468 10.8294 12.3457 10.9757C12.3457 11.1548 12.3457 11.3172 12.184 11.4315C12.0676 11.4955 11.9351 11.5251 11.8025 11.5152ZM14.4753 9.83554C14.3945 9.83554 14.3159 9.84137 14.2605 9.84355L14.0873 9.84792H13.5193V13.3427H14.1877C14.4432 13.3497 14.6975 13.3064 14.9362 13.2153C15.1283 13.1391 15.2985 13.0162 15.4313 12.8578C15.5604 12.698 15.6531 12.5119 15.7029 12.3125C15.7601 12.0867 15.788 11.8545 15.7859 11.6215C15.8 11.3464 15.7787 11.0707 15.7225 10.801C15.6692 10.6025 15.5694 10.4195 15.4313 10.2673C15.323 10.1444 15.1903 10.0452 15.0418 9.97606C14.9142 9.91703 14.78 9.87352 14.6421 9.84646C14.5872 9.8374 14.5316 9.83326 14.4761 9.83409M14.3435 12.7006H14.2707V10.4697H14.2802C14.4303 10.4524 14.5822 10.4795 14.717 10.5476C14.8158 10.6265 14.8963 10.7258 14.9529 10.8388C15.0141 10.9578 15.0493 11.0883 15.0563 11.2218C15.0629 11.382 15.0563 11.513 15.0563 11.6215C15.0593 11.7465 15.0513 11.8715 15.0323 11.995C15.0099 12.1219 14.9684 12.2446 14.9093 12.3591C14.8423 12.4655 14.7519 12.5552 14.645 12.6212C14.5551 12.6793 14.4488 12.7064 14.3421 12.6984M18.0407 9.84792H16.2715V13.3427H17.02V11.9565H17.9665V11.307H17.02V10.4974H18.0393V9.84792" fill="#464648"/>
<path id="Vector_6" d="M21.2085 21.2911C21.2085 21.2911 23.5296 20.8703 23.5296 21.6632C23.5296 22.4561 22.0917 22.1335 21.2085 21.2911ZM19.4924 21.3516C19.1236 21.4331 18.7642 21.5524 18.4199 21.7076L18.7112 21.0523C19.0024 20.3971 19.3046 19.5037 19.3046 19.5037C19.6521 20.0886 20.0564 20.6378 20.5117 21.1433C20.1684 21.1945 19.8281 21.2645 19.4924 21.353V21.3516ZM18.5736 16.619C18.5736 15.9281 18.7971 15.7395 18.9711 15.7395C19.1451 15.7395 19.341 15.8232 19.3475 16.4232C19.2908 17.0264 19.1645 17.6211 18.9711 18.1953C18.7062 17.7132 18.569 17.1713 18.5728 16.6212L18.5736 16.619ZM15.1887 24.2756C14.4766 23.8496 16.682 22.5383 17.0817 22.4961C17.0795 22.4968 15.9343 24.7211 15.1887 24.2756ZM24.2075 21.7571C24.2002 21.6843 24.1347 20.8783 22.7003 20.9125C22.1025 20.9029 21.5049 20.945 20.9143 21.0385C20.3423 20.4621 19.8496 19.8121 19.4494 19.1054C19.7016 18.3769 19.8541 17.6177 19.903 16.8484C19.8819 15.9747 19.673 15.4738 19.0031 15.481C18.3333 15.4883 18.2357 16.0744 18.3238 16.9467C18.4101 17.5328 18.5729 18.1051 18.808 18.6489C18.808 18.6489 18.4986 19.6122 18.0894 20.5703C17.6802 21.5285 17.4006 22.0309 17.4006 22.0309C16.6891 22.2625 16.0192 22.6066 15.4166 23.0502C14.8166 23.6086 14.5727 24.0375 14.8887 24.4663C15.161 24.8362 16.1141 24.9199 16.9659 23.8038C17.4186 23.2273 17.8321 22.6211 18.2037 21.9894C18.2037 21.9894 19.5026 21.6333 19.9067 21.5358C20.3108 21.4382 20.7993 21.361 20.7993 21.361C20.7993 21.361 21.9854 22.5544 23.1292 22.5121C24.273 22.4699 24.2177 21.8285 24.2104 21.7586" fill="#DD2025"/>
<path id="Vector_7" d="M22.792 8.05615V12.3322H26.8933L22.792 8.05615Z" fill="#909090"/>
<path id="Vector_8" d="M22.8467 8V12.276H26.948L22.8467 8Z" fill="#F4F4F4"/>
<path id="Vector_9" d="M11.8842 9.78886H10.9326V13.2837H11.684V12.1056L11.85 12.1151C12.0106 12.1123 12.1697 12.0836 12.3211 12.0299C12.4538 11.9842 12.5759 11.9122 12.68 11.818C12.7852 11.7281 12.8679 11.6149 12.9217 11.4875C12.9948 11.2752 13.0208 11.0497 12.9982 10.8264C12.9936 10.6669 12.9657 10.5089 12.9152 10.3575C12.8692 10.2482 12.801 10.1497 12.7149 10.0682C12.6288 9.98674 12.5267 9.92408 12.415 9.88424C12.318 9.84895 12.2178 9.82334 12.1158 9.80779C12.0389 9.79593 11.9613 9.7896 11.8835 9.78886M11.7459 11.4591H11.6811V10.3815H11.8223C11.8844 10.377 11.9466 10.3866 12.0044 10.4094C12.0623 10.4322 12.1143 10.4677 12.1565 10.5133C12.2441 10.6305 12.2909 10.7732 12.2898 10.9196C12.2898 11.0987 12.2898 11.261 12.1281 11.3754C12.0117 11.4394 11.8791 11.4682 11.7466 11.4584M14.4187 9.77939C14.3379 9.77939 14.2592 9.78522 14.2039 9.7874L14.0328 9.79177H13.4649V13.2866H14.1333C14.3887 13.2936 14.643 13.2503 14.8817 13.1592C15.0739 13.0829 15.244 12.9601 15.3768 12.8017C15.506 12.6418 15.5987 12.4557 15.6484 12.2563C15.7056 12.0305 15.7335 11.7983 15.7314 11.5654C15.7455 11.2903 15.7242 11.0145 15.6681 10.7448C15.6148 10.5463 15.5149 10.3634 15.3768 10.2111C15.2685 10.0882 15.1359 9.98906 14.9873 9.91991C14.8597 9.86088 14.7255 9.81737 14.5876 9.79031C14.5327 9.78125 14.4772 9.77711 14.4216 9.77794M14.2891 12.6444H14.2163V10.4136H14.2257C14.3758 10.3963 14.5277 10.4234 14.6626 10.4915C14.7614 10.5703 14.8418 10.6697 14.8985 10.7827C14.9596 10.9016 14.9949 11.0321 15.0019 11.1657C15.0084 11.3258 15.0019 11.4569 15.0019 11.5654C15.0048 11.6903 14.9968 11.8153 14.9778 11.9389C14.9554 12.0657 14.9139 12.1885 14.8548 12.3029C14.7879 12.4093 14.6975 12.499 14.5905 12.565C14.5007 12.6231 14.3943 12.6502 14.2876 12.6422M17.9841 9.79177H16.2149V13.2866H16.9633V11.9003H17.9098V11.2508H16.9633V10.4412H17.9826V9.79177" fill="white"/>
</g>
</g>
</svg>
